<svg width="1047.286089238845" height="410.1417322834646" xmlns="http://www.w3.org/2000/svg">
 <clipPath id="p.0">
  <path id="svg_1" clip-rule="nonzero" d="m0,0l1047.2861,0l0,410.14172l-1047.2861,0l0,-410.14172z"/>
 </clipPath>

 <g>
  <title>background</title>
  <rect fill="none" id="canvas_background" height="402" width="582" y="-1" x="-1"/>
 </g>
 <g>
  <title>Layer 1</title>
  <path id="svg_110" fill-rule="evenodd" d="m546,251.66689l0,0c0,-5.89116 4.7757,-10.66689 10.66687,-10.66689l154.66626,0c2.82904,0 5.54218,1.12383 7.5426,3.12426c2.00043,2.00042 3.12427,4.71359 3.12427,7.54263l0,42.66623c0,5.89116 -4.7757,10.66689 -10.66687,10.66689l-154.66626,0c-5.89117,0 -10.66687,-4.77573 -10.66687,-10.66689l0,-42.66623z" fill="#efefef"/>
  <path id="svg_109" fill-rule="evenodd" d="m544,60.66689l0,0c0,-5.89116 4.7757,-10.66689 10.66687,-10.66689l154.66626,0c2.82904,0 5.54218,1.12383 7.5426,3.12426c2.00043,2.00042 3.12427,4.71359 3.12427,7.54263l0,42.66623c0,5.89116 -4.7757,10.66689 -10.66687,10.66689l-154.66626,0c-5.89117,0 -10.66687,-4.77573 -10.66687,-10.66689l0,-42.66623z" fill="#efefef"/>
  <path stroke="null" id="svg_3" fill-rule="evenodd" d="m46.332973,0l1047.2861,0l0,410.14172l-1047.2861,0l0,-410.14172z" fill-opacity="0" fill="#000000"/>
  <path id="svg_9" fill-rule="evenodd" d="m312,330.66687l0,0c0,-5.89114 4.77573,-10.66687 10.66687,-10.66687l154.66626,0c2.82901,0 5.54218,1.12384 7.5426,3.12427c2.00043,2.00042 3.12427,4.71359 3.12427,7.5426l0,42.66626c0,5.89114 -4.77573,10.66687 -10.66687,10.66687l-154.66626,0c-5.89114,0 -10.66687,-4.77573 -10.66687,-10.66687l0,-42.66626z" fill="#cfe2f3"/>
  <path stroke-dasharray="5,5" fill="none" id="svg_14" fill-rule="evenodd" d="m295,222l208,0l0,176l-208,0l0,-176z" stroke-linejoin="round" stroke="#000000"/>
  <path id="svg_15" fill-rule="evenodd" d="m313,58.66688l0,0c0,-5.89116 4.77573,-10.66688 10.66687,-10.66688l154.66626,0c2.82901,0 5.54218,1.12383 7.5426,3.12425c2.00043,2.00043 3.12427,4.7136 3.12427,7.54263l0,42.66624c0,5.89115 -4.77573,10.66688 -10.66687,10.66688l-154.66626,0c-5.89114,0 -10.66687,-4.77573 -10.66687,-10.66688l0,-42.66624z" fill="#cfe2f3"/>
  <path id="svg_19" fill-rule="evenodd" d="m544,138.66689l0,0c0,-5.89116 4.7757,-10.66689 10.66687,-10.66689l154.66626,0c2.82904,0 5.54218,1.12383 7.5426,3.12426c2.00043,2.00042 3.12427,4.71359 3.12427,7.54263l0,42.66623c0,5.89116 -4.7757,10.66689 -10.66687,10.66689l-154.66626,0c-5.89117,0 -10.66687,-4.77573 -10.66687,-10.66689l0,-42.66623z" fill="#efefef"/>
  <path id="svg_23" fill-rule="evenodd" d="m488,80l56,0" fill-opacity="0" fill="#000000"/>
  <path id="svg_24" fill-rule="evenodd" d="m488,80l50,0" stroke-linejoin="round" stroke="#000000"/>
  <path id="svg_25" fill-rule="evenodd" d="m538,81.65173l4.53809,-1.65173l-4.53809,-1.65174l0,3.30347z" stroke="#000000" fill="#000000"/>
  <path id="svg_26" fill-rule="evenodd" d="m488,80l56,80" fill-opacity="0" fill="#000000"/>
  <path id="svg_27" fill-rule="evenodd" d="m488,80l52.5592,75.08461" stroke-linejoin="round" stroke="#000000"/>
  <path id="svg_28" fill-rule="evenodd" d="m539.20605,156.03181l3.95563,2.77055l-1.24933,-4.66496l-2.7063,1.89441z" stroke="#000000" fill="#000000"/>
  <path id="svg_29" fill-rule="evenodd" d="m24,208l976,0" fill-opacity="0" fill="#000000"/>
  <path id="svg_30" fill-rule="evenodd" d="m24,208l976,0" stroke-linejoin="round" stroke="#b7b7b7"/>
  <path stroke-width="0" id="svg_31" fill-rule="evenodd" d="m311.333338,250.66689l0,0c0,-5.89116 4.77573,-10.66689 10.66687,-10.66689l154.66626,0c2.82901,0 5.54218,1.12383 7.5426,3.12426c2.00043,2.00042 3.12427,4.71359 3.12427,7.54263l0,42.66625c0,5.89114 -4.77573,10.66687 -10.66687,10.66687l-154.66626,0c-5.89114,0 -10.66687,-4.77573 -10.66687,-10.66687l0,-42.66625z" fill="#cfe2f3"/>
  <path id="svg_39" fill-rule="evenodd" d="m543,330.66687l0,0c0,-5.89114 4.7757,-10.66687 10.66687,-10.66687l154.66626,0c2.82904,0 5.54218,1.12384 7.5426,3.12427c2.00043,2.00042 3.12427,4.71359 3.12427,7.5426l0,42.66626c0,5.89114 -4.7757,10.66687 -10.66687,10.66687l-154.66626,0c-5.89117,0 -10.66687,-4.77573 -10.66687,-10.66687l0,-42.66626z" fill="#efefef"/>
  <path id="svg_43" fill-rule="evenodd" d="m488,272l57.00787,0.78741" fill-opacity="0" fill="#000000"/>
  <path id="svg_44" fill-rule="evenodd" d="m488,272l51.00842,0.70453" stroke-linejoin="round" stroke="#000000"/>
  <path id="svg_45" fill-rule="evenodd" d="m538.98566,274.3561l4.56043,-1.5889l-4.51484,-1.71426l-0.04559,3.30316z" stroke="#000000" fill="#000000"/>
  <path id="svg_46" fill-rule="evenodd" d="m488,272l56,80" fill-opacity="0" fill="#000000"/>
  <path id="svg_47" fill-rule="evenodd" d="m488,272l52.5592,75.08459" stroke-linejoin="round" stroke="#000000"/>
  <path id="svg_48" fill-rule="evenodd" d="m539.20605,348.03183l3.95563,2.77054l-1.24933,-4.66498l-2.7063,1.89444z" stroke="#000000" fill="#000000"/>
  <path id="svg_49" fill-rule="evenodd" d="m400,112l0,112" fill-opacity="0" fill="#000000"/>
  <path stroke-dasharray="5,5" id="svg_50" fill-rule="evenodd" d="m400,112l0,100" stroke-linejoin="round" stroke-width="2" stroke="#000000"/>
  <path id="svg_51" fill-rule="evenodd" d="m396.69653,212l3.30347,9.0762l3.30346,-9.0762l-6.60693,0z" stroke-width="2" stroke="#000000" fill="#000000"/>
  <path id="svg_52" fill-rule="evenodd" d="m719,80c126.50012,0 224.50018,48 253.00018,96c28.5,48 -12.50006,96 -25.00018,96" fill-opacity="0" fill="#000000"/>
  <path id="svg_55" fill-rule="evenodd" d="m720,160c12.5,0 24.99213,48 25,96c0.00787,48 -12.46851,96 -24.93701,96" fill-opacity="0" fill="#000000"/>
  <path stroke-dasharray="5,5" fill="none" id="svg_56" fill-rule="evenodd" d="m720,160.666662c12.5,0 24.99213,48 25,96c0.00397,24 -3.11316,48 -7.78986,66c-2.33831,9 -5.06659,16.5 -7.9895,21.75c-0.73071,1.3125 -1.47357,2.48438 -2.22564,3.50391c-0.37598,0.50973 -0.75428,0.98144 -1.13447,1.41357c-0.09503,0.10803 -0.19024,0.21359 -0.28546,0.31665l-0.20526,0.21634" stroke-linejoin="round" stroke="#000000"/>
  <path stroke="#000000" id="svg_57" fill-rule="evenodd" d="m724.5992,347.072898l-3.24316,3.57834l4.78448,-0.65653l-1.54132,-2.92181z" fill="#000000"/>
  <path id="svg_61" fill-rule="evenodd" d="m64,250.66689l0,0c0,-5.89116 4.77573,-10.66689 10.66688,-10.66689l186.66626,0c2.82901,0 5.54217,1.12383 7.5426,3.12426c2.00043,2.00042 3.12427,4.71359 3.12427,7.54263l0,42.66625c0,5.89114 -4.77573,10.66687 -10.66687,10.66687l-186.66626,0c-5.89115,0 -10.66688,-4.77573 -10.66688,-10.66687l0,-42.66625z" fill="#b6d7a8"/>
  <path id="svg_71" fill-rule="evenodd" d="m720,272l52,0" fill-opacity="0" fill="#000000"/>
  <path id="svg_74" fill-rule="evenodd" d="m24,272l40,0" fill-opacity="0" fill="#000000"/>
  <path id="svg_75" fill-rule="evenodd" d="m24,272l34,0" stroke-linejoin="round" stroke="#000000"/>
  <path id="svg_76" fill-rule="evenodd" d="m58,273.65173l4.5381,-1.65173l-4.5381,-1.65174l0,3.30347z" stroke="#000000" fill="#000000"/>
  <path id="svg_77" fill-rule="evenodd" d="m272,272l40,0" fill-opacity="0" fill="#000000"/>
  <path id="svg_78" fill-rule="evenodd" d="m272,272l34,0" stroke-linejoin="round" stroke="#000000"/>
  <path id="svg_79" fill-rule="evenodd" d="m306,273.65173l4.53809,-1.65173l-4.53809,-1.65174l0,3.30347z" stroke="#000000" fill="#000000"/>
  <path id="svg_80" fill-rule="evenodd" d="m272,80l40,0" fill-opacity="0" fill="#000000"/>
  <path id="svg_81" fill-rule="evenodd" d="m272,80l34,0" stroke-linejoin="round" stroke="#000000"/>
  <path id="svg_82" fill-rule="evenodd" d="m306,81.65173l4.53809,-1.65173l-4.53809,-1.65174l0,3.30347z" stroke="#000000" fill="#000000"/>
  <text xml:space="preserve" text-anchor="start" font-family="'League Gothic', sans-serif" font-size="16" id="svg_83" y="291.612528" x="74.643065" fill-opacity="null" stroke-opacity="null" stroke-width="0" stroke="null" fill="#000000">knative-shared-gateway</text>
  <text font-weight="bold" xml:space="preserve" text-anchor="start" font-family="'League Gothic', sans-serif" font-size="18" id="svg_84" y="269.612528" x="74.643065" fill-opacity="null" stroke-opacity="null" stroke-width="0" stroke="null" fill="#000000">Gateway</text>
  <text font-weight="bold" xml:space="preserve" text-anchor="start" font-family="'League Gothic', sans-serif" font-size="18" id="svg_85" y="73.612528" x="326.643065" fill-opacity="null" stroke-opacity="null" stroke-width="0" stroke="null" fill="#000000">Route</text>
  <text font-weight="bold" xml:space="preserve" text-anchor="start" font-family="'League Gothic', sans-serif" font-size="18" id="svg_86" y="76.612528" x="558.643065" fill-opacity="null" stroke-opacity="null" stroke-width="0" stroke="null" fill="#000000">Revision</text>
  <text xml:space="preserve" text-anchor="start" font-family="'League Gothic', sans-serif" font-size="16" id="svg_89" y="97.612528" x="327.643065" fill-opacity="null" stroke-opacity="null" stroke-width="0" stroke="null" fill="#000000">hello-world</text>
  <text xml:space="preserve" text-anchor="start" font-family="'League Gothic', sans-serif" font-size="16" id="svg_92" y="99.612528" x="560.643065" fill-opacity="null" stroke-opacity="null" stroke-width="0" stroke="null" fill="#000000">hello-world-01</text>
  <text style="cursor: move;" xml:space="preserve" text-anchor="start" font-family="'League Gothic', sans-serif" font-size="16" id="svg_93" y="291.612528" x="557.643065" fill-opacity="null" stroke-opacity="null" stroke-width="0" stroke="null" fill="#000000">hello-world-01</text>
  <text stroke="null" xml:space="preserve" text-anchor="start" font-family="'League Gothic', sans-serif" font-size="16" id="svg_95" y="175.612528" x="558.643065" fill-opacity="null" stroke-opacity="null" stroke-width="0" fill="#000000">hello-world-02</text>
  <text font-weight="bold" xml:space="preserve" text-anchor="start" font-family="'League Gothic', sans-serif" font-size="18" id="svg_96" y="153.612528" x="557.643065" fill-opacity="null" stroke-opacity="null" stroke-width="0" stroke="null" fill="#000000">Revision</text>
  <text font-weight="bold" xml:space="preserve" text-anchor="start" font-family="'League Gothic', sans-serif" font-size="18" id="svg_97" y="263.612528" x="323.643065" fill-opacity="null" stroke-opacity="null" stroke-width="0" stroke="null" fill="#000000">VirtualService</text>
  <text xml:space="preserve" text-anchor="start" font-family="'League Gothic', sans-serif" font-size="16" id="svg_98" y="287.612528" x="325.643065" fill-opacity="null" stroke-opacity="null" stroke-width="0" stroke="null" fill="#000000">hello-world</text>
  <text font-weight="bold" xml:space="preserve" text-anchor="start" font-family="'League Gothic', sans-serif" font-size="18" id="svg_99" y="344.612528" x="323.643065" fill-opacity="null" stroke-opacity="null" stroke-width="0" stroke="null" fill="#000000">K8s Service</text>
  <text xml:space="preserve" text-anchor="start" font-family="'League Gothic', sans-serif" font-size="16" id="svg_100" y="369.612528" x="323.643065" fill-opacity="null" stroke-opacity="null" stroke-width="0" stroke="null" fill="#000000">hello-world</text>
  <text font-weight="bold" xml:space="preserve" text-anchor="start" font-family="'League Gothic', sans-serif" font-size="18" id="svg_101" y="268.612528" x="555.643065" fill-opacity="null" stroke-opacity="null" stroke-width="0" stroke="null" fill="#000000">K8s Service</text>
  <text font-weight="bold" xml:space="preserve" text-anchor="start" font-family="'League Gothic', sans-serif" font-size="18" id="svg_102" y="345.612528" x="556.643065" fill-opacity="null" stroke-opacity="null" stroke-width="0" stroke="null" fill="#000000">K8s Service</text>
  <text stroke="null" xml:space="preserve" text-anchor="start" font-family="'League Gothic', sans-serif" font-size="16" id="svg_103" y="369.612528" x="556.643065" fill-opacity="null" stroke-opacity="null" stroke-width="0" fill="#000000">hello-world-02</text>
  <text xml:space="preserve" text-anchor="start" font-family="'League Gothic', sans-serif" font-size="16" id="svg_107" y="166.612528" x="252.643065" fill-opacity="null" stroke-opacity="null" stroke-width="0" stroke="null" fill="#000000">via Route controller</text>
  <text xml:space="preserve" text-anchor="start" font-family="'League Gothic', sans-serif" font-size="14" id="svg_108" y="189.612528" x="745.643065" fill-opacity="null" stroke-opacity="null" stroke-width="0" stroke="null" fill="#000000">via Revision controller</text>
  <path stroke-dasharray="5,5" fill="none" id="svg_114" fill-rule="evenodd" d="m718.000015,88.000526c12.5,0 24.99213,48 25,96c0.00397,24 -3.11316,48 -7.78986,66c-2.33831,9 -5.06659,16.5 -7.9895,21.75c-0.73071,1.3125 -1.47357,2.48438 -2.22564,3.50391c-0.37598,0.50973 -0.75428,0.98144 -1.13447,1.41357c-0.09503,0.10803 -0.19024,0.21359 -0.28546,0.31665l-0.20526,0.21634" stroke-linejoin="round" stroke="#000000"/>
  <path stroke="#000000" id="svg_115" fill-rule="evenodd" d="m724.5992,273.7401l-3.24316,3.57834l4.78448,-0.65653l-1.54132,-2.92181z" fill="#000000"/>
 </g>
</svg>