<svg width="1047.286089238845" height="410.1417322834646" xmlns="http://www.w3.org/2000/svg">
 <clipPath id="p.0">
  <path d="m0,0l1047.2861,0l0,410.14172l-1047.2861,0l0,-410.14172z" clip-rule="nonzero" id="svg_1"/>
 </clipPath>

 <g>
  <title>background</title>
  <rect x="-1" y="-1" width="1049.286089" height="412.141732" id="canvas_background" fill="none"/>
 </g>
 <g>
  <title>Layer 1</title>
  <path fill="#000000" fill-opacity="0" d="m0,-3l1047.2861,0l0,410.14172l-1047.2861,0l0,-410.14172z" fill-rule="evenodd" id="svg_3" stroke="null"/>
  <path stroke="#000000" stroke-linejoin="round" d="m717,163c126.50006,0 224.50018,48 253.00018,96c14.25,24 11.125,48 2.87488,66c-4.125,9 -9.53125,16.5 -14.6875,21.75c-2.57813,2.625 -5.09381,4.6875 -7.35553,6.09375l-0.18982,0.11539" fill-rule="evenodd" id="svg_11" fill="none" stroke-dasharray="5,5"/>
  <path fill="#b7b7b7" d="m544,140.66688l0,0c0,-5.89116 4.7757,-10.66688 10.66687,-10.66688l154.66626,0c2.82904,0 5.54218,1.12383 7.5426,3.12425c2.00043,2.00043 3.12427,4.7136 3.12427,7.54263l0,42.66624c0,5.89115 -4.7757,10.66688 -10.66687,10.66688l-154.66626,0c-5.89117,0 -10.66687,-4.77573 -10.66687,-10.66688l0,-42.66624z" fill-rule="evenodd" id="svg_2"/>
  <path fill="#b7b7b7" d="m544,58.66688l0,0c0,-5.89116 4.7757,-10.66688 10.66687,-10.66688l154.66626,0c2.82904,0 5.54218,1.12383 7.5426,3.12425c2.00043,2.00043 3.12427,4.7136 3.12427,7.54263l0,42.66624c0,5.89115 -4.7757,10.66688 -10.66687,10.66688l-154.66626,0c-5.89117,0 -10.66687,-4.77573 -10.66687,-10.66688l0,-42.66624z" fill-rule="evenodd" id="svg_4"/>
  <path fill="#cfe2f3" d="m312,330.66687l0,0c0,-5.89114 4.77573,-10.66687 10.66687,-10.66687l154.66626,0c2.82901,0 5.54218,1.12384 7.5426,3.12427c2.00043,2.00042 3.12427,4.71359 3.12427,7.5426l0,42.66626c0,5.89114 -4.77573,10.66687 -10.66687,10.66687l-154.66626,0c-5.89114,0 -10.66687,-4.77573 -10.66687,-10.66687l0,-42.66626z" fill-rule="evenodd" id="svg_9"/>
  <path stroke="#000000" stroke-linejoin="round" d="m295,222l208,0l0,176l-208,0l0,-176z" fill-rule="evenodd" id="svg_14" fill="none" stroke-dasharray="5,5"/>
  <path fill="#cfe2f3" d="m313,58.66688l0,0c0,-5.89116 4.77573,-10.66688 10.66687,-10.66688l154.66626,0c2.82901,0 5.54218,1.12383 7.5426,3.12425c2.00043,2.00043 3.12427,4.7136 3.12427,7.54263l0,42.66624c0,5.89115 -4.77573,10.66688 -10.66687,10.66688l-154.66626,0c-5.89114,0 -10.66687,-4.77573 -10.66687,-10.66688l0,-42.66624z" fill-rule="evenodd" id="svg_15"/>
  <path fill="#000000" fill-opacity="0" d="m488,80l56,0" fill-rule="evenodd" id="svg_23"/>
  <path stroke="#000000" stroke-linejoin="round" d="m488,80l50,0" fill-rule="evenodd" id="svg_24"/>
  <path fill="#000000" stroke="#000000" d="m538,81.65173l4.53809,-1.65173l-4.53809,-1.65174l0,3.30347z" fill-rule="evenodd" id="svg_25"/>
  <path fill="#000000" fill-opacity="0" d="m488,80l56,80" fill-rule="evenodd" id="svg_26"/>
  <path stroke="#000000" stroke-linejoin="round" d="m488,80l52.5592,75.08461" fill-rule="evenodd" id="svg_27"/>
  <path fill="#000000" stroke="#000000" d="m539.20605,156.03181l3.95563,2.77055l-1.24933,-4.66496l-2.7063,1.89441z" fill-rule="evenodd" id="svg_28"/>
  <path fill="#000000" fill-opacity="0" d="m24,208l976,0" fill-rule="evenodd" id="svg_29"/>
  <path stroke="#b7b7b7" stroke-linejoin="round" d="m24,208l976,0" fill-rule="evenodd" id="svg_30"/>
  <path fill="#cfe2f3" d="m312,250.66689l0,0c0,-5.89116 4.77573,-10.66689 10.66687,-10.66689l154.66626,0c2.82901,0 5.54218,1.12383 7.5426,3.12426c2.00043,2.00042 3.12427,4.71359 3.12427,7.54263l0,42.66625c0,5.89114 -4.77573,10.66687 -10.66687,10.66687l-154.66626,0c-5.89114,0 -10.66687,-4.77573 -10.66687,-10.66687l0,-42.66625z" fill-rule="evenodd" id="svg_31"/>
  <path fill="#b7b7b7" d="m772,250.66689l0,0c0,-5.89116 4.7757,-10.66689 10.66687,-10.66689l154.66626,0c2.82904,0 5.54218,1.12383 7.5426,3.12426c2.00043,2.00042 3.12427,4.71359 3.12427,7.54263l0,42.66625c0,5.89114 -4.7757,10.66687 -10.66687,10.66687l-154.66626,0c-5.89117,0 -10.66687,-4.77573 -10.66687,-10.66687l0,-42.66625z" fill-rule="evenodd" id="svg_35"/>
  <path fill="#000000" fill-opacity="0" d="m488,272l57.00787,0.78741" fill-rule="evenodd" id="svg_43"/>
  <path stroke="#000000" stroke-linejoin="round" d="m488,272l51.00842,0.70453" fill-rule="evenodd" id="svg_44"/>
  <path fill="#000000" stroke="#000000" d="m538.98566,274.3561l4.56043,-1.5889l-4.51484,-1.71426l-0.04559,3.30316z" fill-rule="evenodd" id="svg_45"/>
  <path fill="#000000" fill-opacity="0" d="m488,272l56,80" fill-rule="evenodd" id="svg_46"/>
  <path stroke="#000000" stroke-linejoin="round" d="m715,267l56.559199,79.084586" fill-rule="evenodd" id="svg_47"/>
  <path fill="#000000" stroke="#000000" d="m769.20605,345.03183l3.95563,2.77054l-1.24933,-4.66498l-2.7063,1.89444z" fill-rule="evenodd" id="svg_48"/>
  <path fill="#000000" fill-opacity="0" d="m400,112l0,112" fill-rule="evenodd" id="svg_49"/>
  <path stroke="#000000" stroke-width="2" stroke-linejoin="round" d="m400,112l0,100" fill-rule="evenodd" id="svg_50" stroke-dasharray="5,5"/>
  <path fill="#000000" stroke="#000000" stroke-width="2" d="m396.69653,212l3.30347,9.0762l3.30346,-9.0762l-6.60693,0z" fill-rule="evenodd" id="svg_51"/>
  <path fill="#000000" fill-opacity="0" d="m720,80c126.50012,0 224.50018,48 253.00018,96c28.5,48 -12.50006,96 -25.00018,96" fill-rule="evenodd" id="svg_52"/>
  <path stroke="#000000" stroke-linejoin="round" d="m720,80c126.50006,0 224.50018,48 253.00018,96c14.25,24 11.125,48 2.87488,66c-4.125,9 -9.53125,16.5 -14.6875,21.75c-2.57813,2.625 -5.09381,4.6875 -7.35553,6.09375l-0.18982,0.11539" fill-rule="evenodd" id="svg_53" fill="none" stroke-dasharray="5,5"/>
  <path fill="#000000" stroke="#000000" d="m953.08044,268.40588l-3.70569,3.09686l4.82929,0.00965l-1.1236,-3.10651z" fill-rule="evenodd" id="svg_54"/>
  <path fill="#b6d7a8" d="m64,250.66689l0,0c0,-5.89116 4.77573,-10.66689 10.66688,-10.66689l186.66626,0c2.82901,0 5.54217,1.12383 7.5426,3.12426c2.00043,2.00042 3.12427,4.71359 3.12427,7.54263l0,42.66625c0,5.89114 -4.77573,10.66687 -10.66687,10.66687l-186.66626,0c-5.89115,0 -10.66688,-4.77573 -10.66688,-10.66687l0,-42.66625z" fill-rule="evenodd" id="svg_61"/>
  <path fill="#b6d7a8" d="m544,249.66689l0,0c0,-5.89116 4.7757,-10.66689 10.66687,-10.66689l154.66626,0c2.82904,0 5.54218,1.12383 7.5426,3.12426c2.00043,2.00042 3.12427,4.71359 3.12427,7.54263l0,42.66625c0,5.89114 -4.7757,10.66687 -10.66687,10.66687l-154.66626,0c-5.89117,0 -10.66687,-4.77573 -10.66687,-10.66687l0,-42.66625z" fill-rule="evenodd" id="svg_67" stroke-width="0"/>
  <path fill="#000000" fill-opacity="0" d="m720,272l52,0" fill-rule="evenodd" id="svg_71"/>
  <path stroke="#000000" stroke-linejoin="round" d="m720,272l46,0" fill-rule="evenodd" id="svg_72"/>
  <path fill="#000000" stroke="#000000" d="m766,273.65173l4.53809,-1.65173l-4.53809,-1.65174l0,3.30347z" fill-rule="evenodd" id="svg_73"/>
  <path fill="#000000" fill-opacity="0" d="m24,272l40,0" fill-rule="evenodd" id="svg_74"/>
  <path stroke="#000000" stroke-linejoin="round" d="m24,272l34,0" fill-rule="evenodd" id="svg_75"/>
  <path fill="#000000" stroke="#000000" d="m58,273.65173l4.5381,-1.65173l-4.5381,-1.65174l0,3.30347z" fill-rule="evenodd" id="svg_76"/>
  <path fill="#000000" fill-opacity="0" d="m272,272l40,0" fill-rule="evenodd" id="svg_77"/>
  <path stroke="#000000" stroke-linejoin="round" d="m272,272l34,0" fill-rule="evenodd" id="svg_78"/>
  <path fill="#000000" stroke="#000000" d="m306,273.65173l4.53809,-1.65173l-4.53809,-1.65174l0,3.30347z" fill-rule="evenodd" id="svg_79"/>
  <path fill="#000000" fill-opacity="0" d="m272,80l40,0" fill-rule="evenodd" id="svg_80"/>
  <path stroke="#000000" stroke-linejoin="round" d="m272,80l34,0" fill-rule="evenodd" id="svg_81"/>
  <path fill="#000000" stroke="#000000" d="m306,81.65173l4.53809,-1.65173l-4.53809,-1.65174l0,3.30347z" fill-rule="evenodd" id="svg_82"/>
  <text fill="#000000" stroke="null" stroke-width="0" stroke-opacity="null" fill-opacity="null" x="74.643065" y="291.612528" id="svg_83" font-size="16" font-family="'League Gothic', sans-serif" text-anchor="start" xml:space="preserve">knative-shared-gateway</text>
  <text fill="#000000" stroke="null" stroke-width="0" stroke-opacity="null" fill-opacity="null" x="74.643065" y="269.612528" id="svg_84" font-size="18" font-family="'League Gothic', sans-serif" text-anchor="start" xml:space="preserve" font-weight="bold">Gateway</text>
  <text fill="#000000" stroke="null" stroke-width="0" stroke-opacity="null" fill-opacity="null" x="326.643065" y="73.612528" id="svg_85" font-size="18" font-family="'League Gothic', sans-serif" text-anchor="start" xml:space="preserve" font-weight="bold">Route</text>
  <text fill="#000000" stroke="null" stroke-width="0" stroke-opacity="null" fill-opacity="null" x="558.643065" y="76.612528" id="svg_86" font-size="18" font-family="'League Gothic', sans-serif" text-anchor="start" xml:space="preserve" font-weight="bold">Revision</text>
  <text fill="#000000" stroke="null" stroke-width="0" stroke-opacity="null" fill-opacity="null" x="327.643065" y="97.612528" id="svg_89" font-size="16" font-family="'League Gothic', sans-serif" text-anchor="start" xml:space="preserve">hello-world</text>
  <text fill="#000000" stroke="null" stroke-width="0" stroke-opacity="null" fill-opacity="null" x="636.643065" y="75.612528" id="svg_90" font-size="16" font-family="'League Gothic', sans-serif" text-anchor="start" xml:space="preserve">[inactive]</text>
  <text fill="#000000" stroke="null" stroke-width="0" stroke-opacity="null" fill-opacity="null" x="560.643065" y="99.612528" id="svg_92" font-size="16" font-family="'League Gothic', sans-serif" text-anchor="start" xml:space="preserve">hello-world-01</text>
  <text fill="#000000" stroke="null" stroke-width="0" stroke-opacity="null" fill-opacity="null" x="557.643065" y="291.612528" id="svg_93" font-size="16" font-family="'League Gothic', sans-serif" text-anchor="start" xml:space="preserve">kbuffer-service</text>
  <text fill="#000000" stroke-width="0" stroke-opacity="null" fill-opacity="null" x="558.643065" y="175.612528" id="svg_95" font-size="16" font-family="'League Gothic', sans-serif" text-anchor="start" xml:space="preserve" stroke="null">hello-world-02</text>
  <text fill="#000000" stroke="null" stroke-width="0" stroke-opacity="null" fill-opacity="null" x="557.643065" y="153.612528" id="svg_96" font-size="18" font-family="'League Gothic', sans-serif" text-anchor="start" xml:space="preserve" font-weight="bold">Revision</text>
  <text fill="#000000" stroke="null" stroke-width="0" stroke-opacity="null" fill-opacity="null" x="323.643065" y="263.612528" id="svg_97" font-size="18" font-family="'League Gothic', sans-serif" text-anchor="start" xml:space="preserve" font-weight="bold">VirtualService</text>
  <text fill="#000000" stroke="null" stroke-width="0" stroke-opacity="null" fill-opacity="null" x="325.643065" y="287.612528" id="svg_98" font-size="16" font-family="'League Gothic', sans-serif" text-anchor="start" xml:space="preserve">hello-world</text>
  <text fill="#000000" stroke="null" stroke-width="0" stroke-opacity="null" fill-opacity="null" x="323.643065" y="344.612528" id="svg_99" font-size="18" font-family="'League Gothic', sans-serif" text-anchor="start" xml:space="preserve" font-weight="bold">K8s Service</text>
  <text fill="#000000" stroke="null" stroke-width="0" stroke-opacity="null" fill-opacity="null" x="323.643065" y="369.612528" id="svg_100" font-size="16" font-family="'League Gothic', sans-serif" text-anchor="start" xml:space="preserve">hello-world</text>
  <text fill="#000000" stroke="null" stroke-width="0" stroke-opacity="null" fill-opacity="null" x="555.643065" y="268.612528" id="svg_101" font-size="18" font-family="'League Gothic', sans-serif" text-anchor="start" xml:space="preserve" font-weight="bold">K8s Service</text>
  <text fill="#000000" stroke="null" stroke-width="0" stroke-opacity="null" fill-opacity="null" x="783.643065" y="266.612528" id="svg_104" font-size="18" font-family="'League Gothic', sans-serif" text-anchor="start" xml:space="preserve" font-weight="bold">K8s Service</text>
  <text fill="#000000" stroke="null" stroke-width="0" stroke-opacity="null" fill-opacity="null" x="786.643065" y="291.612528" id="svg_105" font-size="16" font-family="'League Gothic', sans-serif" text-anchor="start" xml:space="preserve">hello-world-01</text>
  <text fill="#000000" stroke="null" stroke-width="0" stroke-opacity="null" fill-opacity="null" x="252.643065" y="166.612528" id="svg_107" font-size="16" font-family="'League Gothic', sans-serif" text-anchor="start" xml:space="preserve">via Route controller</text>
  <text fill="#000000" stroke="null" stroke-width="0" stroke-opacity="null" fill-opacity="null" x="750.643065" y="157.612528" id="svg_108" font-size="14" font-family="'League Gothic', sans-serif" text-anchor="start" xml:space="preserve">via Revision controller</text>
  <text fill="#000000" stroke="null" stroke-width="0" stroke-opacity="null" fill-opacity="null" x="635.643065" y="152.612528" id="svg_5" font-size="16" font-family="'League Gothic', sans-serif" text-anchor="start" xml:space="preserve">[inactive]</text>
  <path fill="#b7b7b7" d="m773,321.66689l0,0c0,-5.89116 4.7757,-10.66689 10.66687,-10.66689l154.66626,0c2.82904,0 5.54218,1.12383 7.5426,3.12426c2.00043,2.00042 3.12427,4.71359 3.12427,7.54263l0,42.66625c0,5.89114 -4.7757,10.66687 -10.66687,10.66687l-154.66626,0c-5.89117,0 -10.66687,-4.77573 -10.66687,-10.66687l0,-42.66625z" fill-rule="evenodd" id="svg_6"/>
  <text fill="#000000" stroke="null" stroke-width="0" stroke-opacity="null" fill-opacity="null" x="782.643065" y="336.612528" id="svg_7" font-size="18" font-family="'League Gothic', sans-serif" text-anchor="start" xml:space="preserve" font-weight="bold">K8s Service</text>
  <text style="cursor: move;" stroke="null" fill="#000000" stroke-width="0" stroke-opacity="null" fill-opacity="null" x="784.643065" y="361.612528" id="svg_8" font-size="16" font-family="'League Gothic', sans-serif" text-anchor="start" xml:space="preserve">hello-world-02</text>
  <path fill="#000000" stroke="#000000" d="m953.08044,349.40588l-3.70569,3.09686l4.82929,0.00965l-1.1236,-3.10651z" fill-rule="evenodd" id="svg_12"/>
 </g>
</svg>